<svg width="26" height="21" viewBox="0 0 26 21" fill="none" xmlns="http://www.w3.org/2000/svg">
<path d="M22.0842 0.165956H3.43616C2.85749 0.165956 2.31616 0.305956 1.81216 0.585957C1.30816 0.865957 0.906823 1.24862 0.608156 1.73396C0.30949 2.21929 0.160156 2.75129 0.160156 3.32996V17.33C0.160156 17.9086 0.304823 18.45 0.594156 18.954C0.88349 19.458 1.27549 19.8593 1.77016 20.158C2.26482 20.4566 2.82016 20.606 3.43616 20.606H22.0842C22.6628 20.606 23.2042 20.4613 23.7082 20.172C24.2122 19.8826 24.6135 19.4906 24.9122 18.996C25.2108 18.5013 25.3602 17.946 25.3602 17.33V3.32996C25.3602 2.75129 25.2108 2.21929 24.9122 1.73396C24.6135 1.24862 24.2122 0.865957 23.7082 0.585957C23.2042 0.305956 22.6628 0.165956 22.0842 0.165956ZM3.43616 1.92996H22.0842C22.4948 1.92996 22.8308 2.06996 23.0922 2.34996C23.3535 2.62996 23.4842 2.95662 23.4842 3.32996V4.02996L13.4602 10.442C13.2175 10.554 12.9655 10.61 12.7042 10.61C12.4428 10.61 12.1908 10.554 11.9482 10.442L2.03616 4.02996V3.32996C2.03616 2.91929 2.16682 2.58329 2.42816 2.32196C2.68949 2.06062 3.02549 1.92996 3.43616 1.92996ZM22.0842 18.842H3.43616C3.04416 18.842 2.71282 18.6973 2.44216 18.408C2.17149 18.1186 2.03616 17.7966 2.03616 17.442V6.12996L11.1362 11.954C11.5282 12.2713 12.0695 12.43 12.7602 12.43C13.4508 12.43 13.9922 12.2713 14.3842 11.954L23.4842 6.12996V17.33C23.4842 17.7406 23.3535 18.0953 23.0922 18.394C22.8308 18.6926 22.4948 18.842 22.0842 18.842Z" fill="#111827"/>
</svg>
