<svg width="26" height="26" viewBox="0 0 26 26" fill="none" xmlns="http://www.w3.org/2000/svg">
<path d="M22.3434 15.2659C21.13 15.1352 20.122 14.8645 19.3194 14.4539C18.7407 14.2299 18.148 14.1879 17.5414 14.3279C16.9347 14.4679 16.398 14.7432 15.9314 15.1539L14.8674 16.3299C12.5154 14.7992 10.574 12.8579 9.04338 10.5059L10.1074 9.44187C10.5554 8.99387 10.84 8.46654 10.9614 7.85987C11.0827 7.2532 11.0314 6.65121 10.8074 6.05387C10.4714 5.17654 10.238 4.16854 10.1074 3.02987C9.97672 2.26454 9.59872 1.62521 8.97338 1.11187C8.34805 0.598539 7.63405 0.341871 6.83138 0.341871H3.10738C2.52872 0.379206 2.01072 0.565872 1.55338 0.901873C1.09605 1.23787 0.741382 1.66721 0.489382 2.18987C0.237382 2.71254 0.130049 3.2632 0.167382 3.84187C0.354049 5.70854 0.764715 7.53321 1.39938 9.31587C2.03405 11.0985 2.87405 12.7739 3.91938 14.3419C5.78605 17.2912 8.19405 19.6992 11.1434 21.5659C12.73 22.5552 14.41 23.3672 16.1834 24.0019C17.9567 24.6365 19.7767 25.0752 21.6434 25.3179H22.0074C22.3994 25.3179 22.7914 25.2339 23.1834 25.0659C23.5754 24.8979 23.9207 24.6692 24.2194 24.3799C24.518 24.0905 24.7467 23.7499 24.9054 23.3579C25.064 22.9659 25.1434 22.5645 25.1434 22.1539V18.6539C25.1434 17.7952 24.882 17.0485 24.3594 16.4139C23.8367 15.7792 23.1647 15.3965 22.3434 15.2659ZM23.2674 18.5419V22.0419C23.2674 22.4339 23.118 22.7885 22.8194 23.1059C22.4834 23.4045 22.1287 23.5539 21.7554 23.5539H21.6434C19.926 23.3859 18.2554 23.0125 16.6314 22.4339C14.9514 21.8365 13.3927 21.0432 11.9554 20.0539C10.63 19.1952 9.39338 18.1919 8.24538 17.0439C7.09738 15.8959 6.08472 14.6499 5.20738 13.3059C4.27405 11.8499 3.51338 10.3005 2.92538 8.65787C2.33738 7.01521 1.93138 5.33521 1.70738 3.61787C1.76338 3.18854 1.93138 2.8292 2.21138 2.53987C2.49138 2.25054 2.82738 2.10587 3.21938 2.10587H6.83138C7.18605 2.10587 7.50805 2.23187 7.79738 2.48387C8.08672 2.73587 8.23138 3.02987 8.23138 3.36587C8.26872 3.85121 8.36205 4.39254 8.51138 4.98987C8.60472 5.3632 8.75405 5.90454 8.95938 6.61387L9.04338 6.86587C9.15538 7.16454 9.18338 7.44921 9.12738 7.71987C9.07138 7.99054 8.93138 8.21921 8.70738 8.40587L7.41938 9.80587C7.25138 9.91787 7.15338 10.0719 7.12538 10.2679C7.09738 10.4639 7.11138 10.6552 7.16738 10.8419C8.04472 12.3539 9.11338 13.7399 10.3734 14.9999C11.6334 16.2599 13.0194 17.3285 14.5314 18.2059C14.6994 18.3179 14.886 18.3552 15.0914 18.3179C15.2967 18.2805 15.4554 18.1965 15.5674 18.0659L17.1074 16.5539C17.294 16.3672 17.5367 16.2365 17.8354 16.1619C18.134 16.0872 18.3954 16.1059 18.6194 16.2179C19.702 16.6472 20.8687 16.9179 22.1194 17.0299C22.474 17.0859 22.7727 17.2679 23.0154 17.5759C23.258 17.8839 23.342 18.2059 23.2674 18.5419ZM14.8674 1.96587C16.3794 2.11521 17.7514 2.58187 18.9834 3.36587C20.2154 4.14987 21.2234 5.15787 22.0074 6.38987C22.7914 7.62187 23.258 8.99387 23.4074 10.5059C23.4074 10.7299 23.496 10.9212 23.6734 11.0799C23.8507 11.2385 24.0327 11.3179 24.2194 11.3179H24.3314C24.5554 11.3179 24.7467 11.2199 24.9054 11.0239C25.064 10.8279 25.1434 10.6085 25.1434 10.3659C24.9567 8.6112 24.3874 6.99654 23.4354 5.52187C22.5207 4.08454 21.3307 2.90854 19.8654 1.99387C18.4 1.0792 16.7807 0.528538 15.0074 0.341871C14.7647 0.341871 14.5454 0.421206 14.3494 0.579872C14.1534 0.738539 14.0554 0.920538 14.0554 1.12587C14.0554 1.33121 14.1347 1.52254 14.2934 1.69987C14.452 1.8772 14.6434 1.96587 14.8674 1.96587ZM14.0554 5.71787C13.9994 5.94187 14.046 6.15654 14.1954 6.36187C14.3447 6.56721 14.5314 6.69787 14.7554 6.75387C15.726 6.94054 16.5707 7.39787 17.2894 8.12587C18.008 8.85387 18.4887 9.72187 18.7314 10.7299C18.7874 10.9539 18.89 11.1265 19.0394 11.2479C19.1887 11.3692 19.3567 11.4299 19.5434 11.4299H19.6554C19.898 11.3739 20.0894 11.2432 20.2294 11.0379C20.3694 10.8325 20.4114 10.6085 20.3554 10.3659C20.1314 9.04054 19.5387 7.89254 18.5774 6.92187C17.616 5.9512 16.4634 5.31654 15.1194 5.01787C14.8767 4.96187 14.6527 4.99454 14.4474 5.11587C14.242 5.23721 14.1114 5.43787 14.0554 5.71787Z" fill="#111827"/>
</svg>
