<?xml version="1.0" encoding="UTF-8" ?>
<!DOCTYPE svg PUBLIC "-//W3C//DTD SVG 1.1//EN" "http://www.w3.org/Graphics/SVG/1.1/DTD/svg11.dtd">
<svg width="512pt" height="512pt" viewBox="0 0 512 512" version="1.1" xmlns="http://www.w3.org/2000/svg">
<g id="#000000ff">
<path fill="#000000" opacity="1.00" d=" M 210.88 100.83 C 229.72 93.44 249.64 88.01 269.98 87.78 C 285.88 87.64 302.38 91.17 315.35 100.76 C 326.53 108.82 334.67 121.23 336.62 134.97 C 339.28 152.67 333.69 170.36 326.25 186.22 C 317.48 204.69 305.75 221.56 293.41 237.79 C 323.58 237.52 353.82 240.37 383.32 246.76 C 406.43 251.91 429.24 259.09 450.34 269.92 C 454.24 271.82 455.47 277.34 452.87 280.78 C 450.76 283.90 446.31 284.79 443.07 282.97 C 436.25 279.54 429.21 276.58 422.13 273.75 C 429.83 297.00 432.04 322.08 428.24 346.29 C 426.24 357.86 415.77 367.23 404.05 367.98 C 391.83 369.16 379.73 360.64 376.39 348.88 C 373.74 340.73 376.74 332.30 376.48 324.00 C 377.06 299.49 367.68 275.50 352.53 256.46 C 338.58 254.57 324.53 253.43 310.46 252.98 C 325.51 280.74 332.05 313.14 328.29 344.53 C 326.45 356.64 315.34 366.52 303.07 366.77 C 291.52 367.40 280.31 359.55 276.69 348.62 C 274.81 343.63 275.16 338.24 275.56 333.03 C 276.86 313.00 271.82 292.72 261.65 275.45 C 250.03 288.17 238.06 300.55 225.92 312.77 C 226.75 323.17 226.86 333.67 225.59 344.04 C 223.93 355.72 213.67 365.43 201.93 366.48 C 193.19 367.53 184.42 363.64 178.68 357.12 C 165.59 368.50 152.10 379.45 138.02 389.59 C 163.00 399.20 189.72 403.11 216.21 405.78 C 247.69 408.76 279.34 409.39 310.94 409.18 C 338.33 408.90 365.75 407.81 392.97 404.56 C 415.51 401.74 438.18 397.79 459.37 389.34 C 471.30 384.36 483.32 377.73 490.83 366.85 C 497.16 357.80 498.38 345.90 495.51 335.39 C 492.05 322.61 483.55 311.80 473.67 303.26 C 471.25 301.25 468.92 298.42 469.58 295.04 C 470.11 289.86 476.75 286.76 481.00 289.84 C 497.29 302.89 510.39 321.62 512.00 342.93 L 512.00 348.28 C 511.58 360.02 507.12 371.54 499.33 380.35 C 488.69 392.67 473.73 400.23 458.66 405.70 C 437.86 413.11 415.98 416.87 394.12 419.49 C 367.86 422.51 341.43 423.72 315.01 424.12 C 283.74 424.47 252.43 423.91 221.25 421.24 C 187.95 418.12 153.96 413.63 123.29 399.50 C 104.88 410.94 84.95 421.38 63.10 423.82 C 48.10 425.64 32.17 421.48 20.97 411.09 C 7.07 398.94 0.87 380.26 0.00 362.25 L 0.00 352.98 C 0.86 339.03 3.64 325.23 7.98 311.95 C 18.13 280.91 34.93 252.45 54.36 226.36 C 78.75 194.14 107.64 165.29 140.07 141.17 C 161.96 124.99 185.55 110.90 210.88 100.83 M 207.15 118.67 C 228.79 129.44 247.78 145.41 262.21 164.80 C 266.06 169.97 267.96 176.57 267.38 183.01 C 266.66 192.41 260.49 201.13 251.86 204.92 C 241.90 209.54 229.23 207.24 221.59 199.35 C 217.88 195.39 214.82 190.85 210.96 187.02 C 194.00 169.00 170.18 158.38 145.76 155.65 C 134.53 164.17 123.79 173.31 113.50 182.94 C 121.06 185.28 128.51 188.00 135.67 191.39 C 138.21 192.65 141.28 193.64 142.64 196.37 C 144.96 200.37 142.49 206.03 138.00 207.08 C 135.37 207.95 132.77 206.67 130.45 205.56 C 121.09 200.97 111.16 197.64 101.05 195.13 C 94.58 201.78 88.34 208.64 82.27 215.64 C 111.57 219.30 139.65 233.62 158.62 256.44 C 161.81 261.02 167.93 263.57 173.29 261.41 C 180.10 259.09 183.02 249.97 178.85 244.12 C 173.45 236.95 166.89 230.74 160.21 224.78 C 157.19 222.25 156.83 217.29 159.47 214.36 C 162.03 211.16 167.25 210.82 170.19 213.67 C 177.27 219.66 183.75 226.33 189.66 233.46 C 193.93 238.61 196.15 245.40 195.73 252.08 C 195.28 262.14 188.56 271.56 179.17 275.22 C 168.89 279.53 156.16 276.51 148.88 268.08 C 144.41 262.91 139.75 257.88 134.44 253.55 C 116.77 238.57 93.78 230.90 70.84 229.62 C 63.57 239.00 56.69 248.69 50.36 258.74 C 73.55 267.28 94.69 281.33 111.34 299.62 C 114.65 303.38 118.30 307.02 120.46 311.62 C 123.68 318.27 123.95 326.28 121.12 333.12 C 118.41 339.87 112.78 345.38 105.97 347.93 C 98.06 350.96 88.77 350.00 81.67 345.38 C 76.40 342.06 73.09 336.62 68.61 332.43 C 56.79 320.46 41.85 311.78 25.77 306.96 C 20.07 322.01 15.79 337.80 15.10 353.95 C 14.68 365.42 16.08 377.30 21.46 387.59 C 26.35 396.98 34.73 404.89 45.09 407.72 C 56.29 410.87 68.18 408.67 78.98 405.02 C 95.83 399.17 111.17 389.79 125.88 379.85 C 173.29 346.80 212.69 304.08 252.62 262.69 C 265.64 249.51 277.25 235.00 288.04 219.95 C 297.14 207.42 305.61 194.37 312.39 180.41 C 318.40 167.53 323.48 153.42 322.04 138.98 C 321.06 128.14 314.58 118.27 305.62 112.26 C 294.17 104.25 279.68 102.21 266.01 102.85 C 245.54 103.98 225.80 110.50 207.15 118.67 M 162.88 143.43 C 189.22 149.38 213.42 164.52 229.88 185.98 C 232.36 189.65 236.39 192.55 241.01 192.30 C 247.40 192.39 253.02 186.40 252.43 180.01 C 252.23 175.23 248.60 171.76 245.84 168.23 C 230.98 150.09 211.41 135.99 189.68 127.26 C 180.47 132.19 171.54 137.61 162.88 143.43 M 281.15 253.07 C 278.10 256.58 275.14 260.16 272.07 263.64 C 285.19 284.36 292.21 309.08 290.55 333.64 C 290.37 337.51 289.58 341.72 291.55 345.29 C 293.78 349.84 299.14 352.60 304.15 351.57 C 308.88 350.73 312.79 346.66 313.50 341.92 C 317.00 311.01 309.40 279.16 293.01 252.78 C 289.05 252.86 285.10 252.97 281.15 253.07 M 373.28 259.92 C 387.36 282.42 394.05 309.68 390.68 336.11 C 390.06 340.24 389.86 344.91 392.68 348.34 C 396.53 353.82 405.20 354.65 409.97 349.92 C 413.91 346.42 413.91 340.85 414.43 336.02 C 416.73 312.71 412.82 288.94 403.64 267.42 C 393.65 264.43 383.52 261.92 373.28 259.92 M 42.48 271.84 C 38.62 278.79 34.97 285.84 31.62 293.04 C 52.21 299.41 70.90 311.63 84.98 327.96 C 86.99 330.32 89.06 332.89 92.10 333.92 C 97.14 335.93 103.45 333.94 106.27 329.27 C 108.97 325.13 108.50 319.35 105.33 315.59 C 88.99 295.53 66.96 280.22 42.48 271.84 M 189.94 347.05 C 194.53 353.46 205.29 352.96 209.17 346.07 C 212.23 340.20 211.04 333.22 211.56 326.84 C 204.40 333.63 197.27 340.45 189.94 347.05 Z" />
</g>
</svg>
