<?xml version="1.0" encoding="UTF-8" ?>
<!DOCTYPE svg PUBLIC "-//W3C//DTD SVG 1.1//EN" "http://www.w3.org/Graphics/SVG/1.1/DTD/svg11.dtd">
<svg width="512pt" height="512pt" viewBox="0 0 512 512" version="1.1" xmlns="http://www.w3.org/2000/svg">
<g id="#000000ff">
<path fill="#000000" opacity="1.00" d=" M 13.35 0.00 L 19.38 0.00 C 40.02 1.09 60.33 8.61 76.35 21.73 C 92.42 34.73 104.12 52.99 109.22 73.03 C 113.89 91.52 118.46 110.04 123.12 128.54 C 245.41 128.52 367.69 128.55 489.97 128.52 C 495.02 128.58 500.61 127.89 505.04 130.88 C 508.88 133.19 511.13 137.35 512.00 141.64 L 512.00 145.10 C 500.67 191.06 489.06 236.95 477.62 282.88 C 475.02 292.84 473.19 303.17 468.36 312.38 C 458.78 331.53 440.08 345.79 419.05 349.87 C 410.49 351.70 401.68 351.30 392.99 351.33 C 328.97 351.34 264.95 351.33 200.93 351.34 C 193.92 351.28 186.68 353.64 181.75 358.77 C 174.05 366.58 172.65 379.49 177.91 389.00 C 180.81 394.43 185.97 398.52 191.84 400.32 C 197.37 402.10 203.24 401.62 208.96 401.67 C 265.64 401.67 322.31 401.67 378.99 401.67 C 387.34 401.74 395.82 401.18 404.04 403.04 C 417.34 405.69 429.76 413.28 437.46 424.55 C 447.43 438.87 449.90 457.88 444.62 474.43 C 441.07 485.83 433.65 496.07 423.60 502.60 C 414.73 508.50 404.15 511.36 393.59 512.00 L 388.71 512.00 C 375.94 511.06 363.56 505.60 354.48 496.54 C 342.71 485.07 336.10 468.33 337.51 451.90 C 338.03 444.82 340.29 437.99 343.42 431.66 C 317.27 431.67 291.12 431.67 264.97 431.66 C 270.19 441.80 272.28 453.55 270.37 464.83 C 267.53 482.83 255.54 499.21 238.99 506.96 C 233.12 509.80 226.68 511.25 220.23 512.00 L 211.85 512.00 C 198.38 510.96 185.34 504.95 176.17 494.97 C 164.49 482.58 158.62 464.78 161.29 447.89 C 162.57 439.18 166.32 430.99 171.52 423.93 C 158.05 416.11 148.51 402.18 145.78 386.87 C 142.22 369.17 147.78 349.77 160.96 337.26 C 147.95 327.46 138.32 313.24 134.42 297.39 C 116.37 225.41 98.44 153.41 80.40 81.44 C 76.89 67.12 68.66 53.99 57.11 44.80 C 45.31 35.19 30.15 30.09 14.98 29.97 C 7.49 30.08 0.95 23.97 0.00 16.64 L 0.00 13.09 C 1.08 6.38 6.59 0.89 13.35 0.00 M 130.62 158.54 C 141.68 202.74 152.66 246.96 163.80 291.15 C 168.30 308.44 185.16 321.39 203.02 321.31 C 270.33 321.36 337.65 321.34 404.96 321.32 C 423.84 321.65 441.42 307.33 445.20 288.89 C 456.05 245.43 466.94 201.99 477.77 158.53 C 362.05 158.54 246.34 158.52 130.62 158.54 M 210.20 432.30 C 202.55 434.03 195.90 439.55 192.79 446.75 C 188.45 456.43 191.11 468.85 199.17 475.80 C 207.70 483.22 221.23 483.79 230.47 477.35 C 239.94 470.93 243.52 457.47 239.00 447.05 C 234.58 436.04 221.73 429.42 210.20 432.30 M 387.17 432.25 C 379.47 433.91 372.73 439.41 369.57 446.62 C 365.32 455.97 367.62 467.87 375.01 474.99 C 383.46 483.16 397.68 484.04 407.25 477.32 C 416.37 471.10 420.01 458.30 416.13 448.07 C 412.12 436.58 399.02 429.40 387.17 432.25 Z" />
</g>
</svg>
