<?xml version="1.0" encoding="UTF-8" ?>
<!DOCTYPE svg PUBLIC "-//W3C//DTD SVG 1.1//EN" "http://www.w3.org/Graphics/SVG/1.1/DTD/svg11.dtd">
<svg width="512pt" height="512pt" viewBox="0 0 512 512" version="1.1" xmlns="http://www.w3.org/2000/svg">
<g id="#000000ff">
<path fill="#000000" opacity="1.00" d=" M 397.50 40.58 C 400.55 37.21 406.27 37.30 409.26 40.70 C 416.63 48.01 423.96 55.37 431.29 62.72 C 434.69 65.73 434.78 71.50 431.37 74.55 C 423.63 82.40 415.79 90.14 408.01 97.94 C 407.99 105.42 408.00 112.90 408.00 120.38 C 427.34 122.18 446.00 130.50 460.12 143.86 C 475.66 158.34 485.61 178.61 487.55 199.76 C 491.86 200.03 496.09 203.30 495.95 207.91 C 496.07 218.29 495.97 228.68 496.00 239.07 C 496.33 242.90 493.83 246.83 490.00 247.71 C 486.50 248.26 482.95 247.92 479.43 248.02 C 474.43 318.70 469.33 389.38 464.33 460.06 C 464.02 463.15 464.32 466.69 462.09 469.18 C 460.40 471.26 457.65 472.11 455.04 472.00 C 431.36 472.00 407.68 472.00 384.00 472.00 C 384.00 466.66 384.00 461.33 384.00 456.00 C 405.52 455.98 427.04 456.03 448.56 455.98 C 453.48 386.65 458.46 317.33 463.40 248.00 C 410.47 248.00 357.53 248.00 304.60 248.00 C 305.34 258.43 306.12 268.86 306.85 279.29 C 301.52 279.66 296.20 280.06 290.87 280.42 C 290.09 269.62 289.30 258.83 288.57 248.03 C 283.86 247.59 278.12 249.35 274.35 245.64 C 271.95 243.45 271.91 240.02 271.98 237.02 C 272.12 226.98 271.80 216.93 272.13 206.90 C 272.47 202.68 276.52 200.09 280.44 199.76 C 282.36 178.60 292.33 158.32 307.89 143.85 C 322.02 130.49 340.70 122.22 360.03 120.34 C 359.99 106.87 359.96 93.41 360.04 79.94 C 359.94 77.30 361.48 75.03 363.37 73.34 C 374.77 62.44 386.11 51.48 397.50 40.58 M 376.05 83.30 C 375.93 95.53 376.03 107.77 376.00 120.00 C 381.33 120.00 386.66 120.00 392.00 120.00 C 392.03 111.65 391.95 103.30 392.02 94.96 C 391.91 92.58 392.94 90.31 394.65 88.68 C 401.28 82.00 407.96 75.36 414.62 68.70 C 410.83 64.88 407.05 61.05 403.21 57.28 C 394.14 65.93 385.16 74.69 376.05 83.30 M 314.70 159.71 C 304.58 170.79 298.10 185.08 296.43 200.00 C 354.81 200.00 413.18 200.00 471.57 200.00 C 469.71 183.44 461.90 167.67 449.85 156.16 C 436.86 143.60 419.04 136.15 400.95 136.02 C 389.64 135.99 378.34 135.99 367.04 136.02 C 347.29 136.16 327.89 145.06 314.70 159.71 M 288.00 216.00 C 288.00 221.33 288.00 226.66 288.00 232.00 C 352.00 232.00 416.00 232.00 480.00 232.00 C 480.00 226.67 480.00 221.33 480.00 216.00 C 416.00 216.00 352.00 216.00 288.00 216.00 Z" />
<path fill="#000000" opacity="1.00" d=" M 48.74 140.66 C 50.13 137.49 53.60 135.70 57.00 135.99 C 103.99 135.99 150.99 136.03 197.99 135.98 C 201.40 135.69 205.30 136.78 206.95 140.05 C 211.74 149.31 216.25 158.70 220.95 168.00 C 225.28 168.13 229.63 167.69 233.93 168.26 C 237.39 169.04 240.00 172.38 239.95 175.92 C 240.03 186.64 240.04 197.37 239.95 208.09 C 240.09 212.73 235.80 216.00 231.46 216.24 C 230.87 226.80 230.16 237.34 229.51 247.90 C 234.07 247.34 239.41 249.88 239.89 254.89 C 239.87 263.88 238.95 272.86 238.60 281.85 C 233.27 281.56 227.93 281.27 222.60 280.96 C 222.91 275.31 223.23 269.66 223.53 264.00 C 159.84 264.00 96.15 264.00 32.46 264.00 C 34.76 306.63 37.30 349.25 39.48 391.88 C 76.98 392.16 114.49 391.92 152.00 392.00 C 152.00 397.33 152.00 402.66 152.00 408.00 C 118.84 408.00 85.68 408.00 52.51 408.00 C 53.50 423.99 54.53 439.98 55.49 455.97 C 79.66 456.05 103.83 455.97 128.00 456.00 C 128.00 461.33 128.00 466.66 128.00 472.00 C 101.32 471.97 74.65 472.05 47.98 471.96 C 43.69 472.09 39.93 468.28 39.99 464.01 C 38.80 445.36 37.64 426.71 36.51 408.05 C 33.27 407.94 29.54 408.47 26.89 406.15 C 24.70 404.45 23.93 401.63 23.91 398.97 C 21.33 351.30 18.52 303.63 16.04 255.96 C 15.82 250.49 21.53 247.18 26.49 247.89 C 25.83 237.34 25.13 226.80 24.53 216.24 C 20.21 215.99 15.90 212.74 16.05 208.10 C 15.96 197.38 15.97 186.65 16.04 175.93 C 15.96 172.09 19.08 168.49 22.91 168.13 C 26.95 167.81 31.00 168.08 35.05 168.00 C 39.63 158.90 44.14 149.75 48.74 140.66 M 60.95 152.00 C 58.28 157.33 55.61 162.66 52.96 167.99 C 102.99 168.01 153.02 168.00 203.05 168.00 C 200.39 162.66 197.73 157.33 195.05 152.00 C 150.35 152.00 105.65 152.00 60.95 152.00 M 32.00 184.00 C 32.00 189.33 32.00 194.67 32.00 200.00 C 96.00 200.00 160.00 200.00 224.00 200.00 C 224.00 194.67 224.00 189.33 224.00 184.00 C 160.00 184.00 96.00 184.00 32.00 184.00 M 40.51 216.00 C 41.18 226.67 41.83 237.34 42.52 248.00 C 99.54 247.92 156.56 248.15 213.57 247.89 C 214.06 237.25 214.87 226.63 215.48 216.00 C 157.16 216.00 98.84 216.00 40.51 216.00 Z" />
<path fill="#000000" opacity="1.00" d=" M 112.09 284.01 C 121.00 279.23 132.06 278.72 141.34 282.77 C 157.84 289.99 167.94 308.37 167.46 326.07 C 167.92 320.06 168.12 314.03 167.98 308.01 C 168.05 305.13 167.62 301.92 169.43 299.45 C 171.07 296.96 174.10 295.83 177.00 296.00 C 224.34 296.00 271.69 296.00 319.04 296.00 C 323.19 295.58 327.46 298.63 327.86 302.89 C 328.20 308.58 327.90 314.29 328.00 320.00 C 336.35 320.04 344.69 319.92 353.04 320.05 C 363.18 320.24 373.15 324.53 380.28 331.75 C 387.70 339.12 392.02 349.51 391.96 359.98 C 392.04 371.43 386.85 382.76 378.17 390.21 C 371.26 396.23 362.23 399.74 353.07 399.95 C 344.73 400.08 336.39 399.96 328.05 400.00 C 327.90 408.62 325.01 417.10 319.84 424.01 C 333.24 424.03 346.64 423.94 360.04 424.04 C 364.28 423.91 368.07 427.71 367.95 431.95 C 367.96 438.68 368.24 445.45 367.75 452.17 C 366.51 463.25 356.14 472.24 345.00 471.99 C 285.67 472.01 226.34 472.01 167.01 471.99 C 157.49 472.14 148.37 465.71 145.31 456.70 C 142.91 449.03 144.42 440.83 144.00 432.93 C 143.50 428.37 147.30 423.87 151.97 424.04 C 160.03 423.93 168.10 424.03 176.16 424.01 C 171.04 417.12 168.00 408.66 168.01 400.05 C 167.98 385.04 168.01 370.04 168.00 355.03 C 167.95 346.99 168.23 338.93 167.51 330.91 C 167.55 344.12 161.80 357.25 152.12 366.22 C 144.63 373.19 134.14 377.07 123.90 375.70 C 113.58 374.47 104.34 368.23 98.23 359.98 C 88.17 346.47 85.60 328.13 90.28 312.10 C 93.64 300.46 101.23 289.71 112.09 284.01 M 129.32 308.08 C 129.46 313.74 133.92 317.84 136.61 322.45 C 141.07 328.79 142.96 336.92 141.35 344.54 C 140.38 348.95 138.61 353.12 137.34 357.44 C 145.04 352.18 150.43 343.66 151.67 334.39 C 152.80 324.77 151.23 314.49 145.62 306.41 C 142.34 301.44 137.25 297.93 131.56 296.24 C 130.43 300.09 129.51 304.06 129.32 308.08 M 104.79 337.26 C 106.78 345.93 112.47 353.70 120.23 358.06 C 121.83 353.08 123.56 348.14 125.18 343.17 C 126.25 340.01 126.17 336.40 124.54 333.44 C 121.30 327.63 116.49 322.63 114.56 316.14 C 113.12 311.72 113.11 307.00 113.66 302.43 C 105.04 311.63 102.25 325.11 104.79 337.26 M 184.00 312.00 C 184.04 341.68 183.93 371.36 184.06 401.04 C 184.25 413.08 194.89 423.71 206.93 423.94 C 233.97 424.07 261.02 423.98 288.07 423.98 C 300.48 424.26 311.74 413.45 311.94 401.04 C 312.08 371.36 311.96 341.68 312.00 312.00 C 269.33 312.00 226.67 312.00 184.00 312.00 M 328.00 336.00 C 328.00 352.00 328.00 368.00 328.00 384.00 C 336.70 383.91 345.40 384.18 354.10 383.87 C 366.13 383.15 376.25 372.04 375.98 360.01 C 376.27 347.97 366.15 336.84 354.10 336.13 C 345.41 335.82 336.70 336.09 328.00 336.00 M 160.01 440.00 C 160.09 443.63 159.73 447.29 160.26 450.90 C 161.07 454.30 164.63 456.34 168.01 456.00 C 226.68 455.99 285.36 456.00 344.04 456.00 C 347.35 456.32 350.83 454.34 351.70 451.03 C 352.31 447.39 351.90 443.67 351.99 440.00 C 288.00 440.00 224.00 440.00 160.01 440.00 Z" />
</g>
</svg>
