<?xml version="1.0" encoding="UTF-8" ?>
<!DOCTYPE svg PUBLIC "-//W3C//DTD SVG 1.1//EN" "http://www.w3.org/Graphics/SVG/1.1/DTD/svg11.dtd">
<svg width="512pt" height="512pt" viewBox="0 0 512 512" version="1.1" xmlns="http://www.w3.org/2000/svg">
<g id="#000000ff">
<path fill="#000000" opacity="1.00" d=" M 34.89 25.93 C 34.97 21.74 38.86 18.27 43.06 18.80 C 108.37 18.81 173.69 18.78 239.00 18.82 C 243.06 18.56 247.33 21.71 247.15 26.02 C 247.45 37.92 246.85 49.87 247.41 61.76 C 252.29 82.90 258.10 103.85 262.72 125.04 C 262.91 182.42 262.74 239.81 262.81 297.20 C 271.35 294.46 280.13 292.36 289.08 291.59 C 290.62 291.41 292.07 292.09 293.49 292.59 C 308.73 298.92 323.96 305.26 339.20 311.59 C 339.22 288.74 339.17 265.89 339.22 243.04 C 339.29 220.21 344.69 197.42 355.06 177.06 C 364.54 158.22 369.23 137.13 369.22 116.07 C 365.83 115.96 361.86 116.39 359.27 113.71 C 357.07 111.78 357.17 108.66 357.17 106.00 C 357.27 94.97 357.11 83.94 357.24 72.91 C 357.11 69.53 359.66 66.21 363.08 65.79 C 365.68 65.45 368.31 65.60 370.93 65.59 C 403.27 65.65 435.61 65.52 467.95 65.65 C 471.92 65.47 475.38 69.05 475.16 73.00 C 475.27 84.33 475.16 95.67 475.21 107.01 C 475.42 110.39 473.93 114.17 470.59 115.48 C 468.07 116.27 465.38 115.94 462.78 116.05 C 462.81 132.31 465.48 148.60 471.20 163.85 C 474.03 171.69 478.11 178.99 481.26 186.69 C 486.82 200.19 490.50 214.47 492.00 229.00 C 492.97 237.97 492.78 247.01 492.83 256.02 C 493.00 325.01 493.07 394.00 493.52 462.99 C 493.13 478.96 479.06 493.29 462.92 493.16 C 317.94 493.25 172.96 493.17 27.98 493.20 C 23.33 493.72 18.58 489.93 19.20 485.03 C 19.20 368.03 19.20 251.03 19.20 134.02 C 19.26 129.70 18.79 125.29 19.99 121.08 C 24.80 102.07 29.43 83.01 34.15 63.98 C 35.28 59.42 34.67 54.68 34.80 50.03 C 34.89 42.00 34.64 33.96 34.89 25.93 M 48.80 32.80 C 48.80 40.14 48.80 47.47 48.80 54.80 C 110.27 54.80 171.73 54.80 233.20 54.80 C 233.20 47.47 233.20 40.14 233.20 32.80 C 171.73 32.80 110.27 32.80 48.80 32.80 M 47.20 68.80 C 43.06 85.47 38.93 102.13 34.81 118.80 C 105.47 118.80 176.14 118.81 246.80 118.79 C 242.65 102.13 238.55 85.45 234.38 68.79 C 171.99 68.81 109.60 68.79 47.20 68.80 M 371.20 79.60 C 371.20 86.94 371.19 94.27 371.20 101.60 C 401.07 101.60 430.93 101.60 460.80 101.60 C 460.80 94.27 460.79 86.94 460.80 79.61 C 430.93 79.60 401.07 79.60 371.20 79.60 M 373.26 171.11 C 369.55 180.85 364.25 189.90 360.87 199.77 C 356.73 211.85 353.85 224.42 353.19 237.19 C 395.19 237.21 437.20 237.20 479.21 237.20 C 478.52 223.76 475.91 210.42 471.22 197.81 C 467.99 188.74 463.06 180.41 459.65 171.42 C 452.72 153.82 449.21 134.92 449.18 116.00 C 427.33 116.00 405.47 116.00 383.62 116.00 C 383.56 134.80 380.12 153.59 373.26 171.11 M 33.20 132.80 C 33.20 162.14 33.20 191.47 33.20 220.80 C 105.20 220.80 177.20 220.80 249.20 220.80 C 249.20 191.47 249.20 162.14 249.20 132.80 C 177.20 132.80 105.20 132.80 33.20 132.80 M 33.20 234.80 C 33.20 283.20 33.20 331.60 33.20 380.00 C 90.13 380.01 147.06 380.00 204.00 380.00 C 204.12 371.29 203.76 362.58 204.18 353.88 C 205.01 345.25 209.44 337.41 214.65 330.66 C 223.85 318.98 236.07 309.98 249.20 303.18 C 249.19 280.39 249.21 257.60 249.20 234.80 C 177.20 234.80 105.20 234.80 33.20 234.80 M 353.20 250.80 C 353.06 272.93 352.93 295.06 352.80 317.19 C 366.47 322.85 380.14 328.53 393.80 334.22 C 396.45 335.26 399.04 336.83 401.99 336.80 C 427.72 336.80 453.46 336.80 479.20 336.80 C 479.20 308.13 479.20 279.47 479.20 250.80 C 437.20 250.80 395.20 250.80 353.20 250.80 M 286.17 306.27 C 275.31 307.67 264.69 310.87 254.92 315.83 C 240.35 323.38 226.48 334.31 219.56 349.58 C 235.65 349.62 251.74 349.60 267.84 349.59 C 270.91 342.56 278.05 337.22 285.91 337.60 C 293.51 337.71 300.24 342.84 303.35 349.60 C 333.54 349.57 363.72 349.65 393.90 349.57 C 359.37 335.29 324.83 321.02 290.28 306.76 C 288.98 306.18 287.56 306.05 286.17 306.27 M 433.61 350.72 C 436.96 354.34 435.85 359.48 436.01 363.96 C 435.83 372.35 436.32 380.77 435.78 389.14 C 435.29 393.33 430.73 394.21 427.59 395.73 C 420.81 399.38 420.72 410.76 427.76 414.21 C 431.18 415.76 435.86 417.35 435.91 421.89 C 436.14 440.86 435.92 459.83 436.00 478.80 C 445.00 478.73 454.01 478.92 463.01 478.73 C 471.56 478.41 478.92 470.61 478.78 462.05 C 478.83 424.97 478.78 387.89 478.80 350.80 C 463.74 350.74 448.67 350.91 433.61 350.72 M 283.28 352.29 C 279.93 353.92 280.11 359.15 283.22 360.93 C 286.47 363.04 291.48 360.02 290.75 356.09 C 290.55 352.55 286.27 350.37 283.28 352.29 M 218.00 363.60 C 218.00 402.13 218.00 440.67 218.00 479.20 C 286.00 479.20 354.00 479.20 422.00 479.20 C 421.92 462.10 422.16 444.99 421.89 427.90 C 419.78 426.03 417.20 424.73 415.27 422.66 C 408.44 415.81 406.36 404.84 410.03 395.92 C 412.21 390.20 416.72 385.69 421.98 382.72 C 422.02 376.34 421.99 369.97 422.00 363.60 C 382.45 363.61 342.90 363.58 303.35 363.62 C 300.35 370.42 293.58 375.67 285.97 375.58 C 278.14 375.77 271.05 370.59 267.86 363.62 C 251.24 363.57 234.62 363.61 218.00 363.60 M 33.20 394.40 C 33.20 422.66 33.20 450.93 33.20 479.20 C 90.13 479.20 147.06 479.20 204.00 479.20 C 204.00 450.93 204.01 422.66 203.99 394.39 C 147.06 394.41 90.13 394.40 33.20 394.40 Z" />
<path fill="#000000" opacity="1.00" d=" M 137.47 267.61 C 141.26 265.00 145.65 267.86 148.24 270.79 C 160.51 283.29 171.46 299.01 172.34 317.06 C 173.11 333.60 158.56 348.74 142.03 348.76 C 126.27 349.55 111.48 336.54 110.18 320.83 C 109.00 305.34 116.84 290.86 126.24 279.13 C 129.72 275.06 133.17 270.84 137.47 267.61 M 124.14 314.94 C 122.71 324.77 130.92 334.89 140.99 334.78 C 150.81 335.12 159.15 325.66 158.34 316.03 C 157.36 303.28 149.51 292.37 141.21 283.17 C 133.35 292.29 125.62 302.64 124.14 314.94 Z" />
<path fill="#000000" opacity="1.00" d=" M 47.20 282.19 C 50.09 280.86 53.78 281.86 55.62 284.44 C 57.56 286.86 57.16 290.14 57.23 293.03 C 57.10 300.67 57.33 308.33 57.15 315.98 C 57.30 319.84 53.86 323.28 50.02 323.19 C 46.19 323.30 42.73 319.90 42.86 316.05 C 42.72 307.38 42.82 298.71 42.81 290.04 C 42.67 286.88 44.20 283.50 47.20 282.19 Z" />
<path fill="#000000" opacity="1.00" d=" M 298.22 318.28 C 302.58 316.68 307.31 321.41 305.72 325.77 C 304.62 329.97 298.67 331.43 295.76 328.23 C 292.56 325.31 294.03 319.37 298.22 318.28 Z" />
<path fill="#000000" opacity="1.00" d=" M 253.36 327.41 C 257.17 325.32 262.30 328.64 261.99 332.96 C 262.06 337.32 256.70 340.33 253.02 338.00 C 248.91 335.90 249.13 329.25 253.36 327.41 Z" />
<path fill="#000000" opacity="1.00" d=" M 343.41 381.62 C 347.44 379.82 352.34 383.68 351.54 388.03 C 351.12 392.42 345.33 394.79 341.96 391.96 C 338.27 389.40 339.16 383.06 343.41 381.62 Z" />
<path fill="#000000" opacity="1.00" d=" M 246.41 397.64 C 251.79 395.59 258.10 396.11 263.00 399.16 C 269.93 403.34 273.77 412.13 271.89 420.04 C 270.69 425.55 266.86 430.41 261.77 432.84 C 255.05 436.14 246.43 435.21 240.72 430.31 C 235.97 426.37 233.50 420.02 234.09 413.90 C 234.61 406.70 239.66 400.13 246.41 397.64 M 251.27 410.39 C 247.46 411.74 246.88 417.51 250.41 419.54 C 254.01 422.27 259.20 417.97 258.23 413.95 C 257.53 411.03 254.06 409.12 251.27 410.39 Z" />
<path fill="#000000" opacity="1.00" d=" M 378.44 406.50 C 382.29 403.84 388.10 407.31 387.59 411.96 C 387.50 416.35 381.99 419.18 378.39 416.66 C 374.70 414.54 374.74 408.58 378.44 406.50 Z" />
<path fill="#000000" opacity="1.00" d=" M 312.46 423.69 C 316.25 421.10 321.96 424.40 321.59 428.98 C 321.67 433.50 315.95 436.45 312.31 433.81 C 308.68 431.65 308.78 425.74 312.46 423.69 Z" />
<path fill="#000000" opacity="1.00" d=" M 359.41 431.66 C 364.30 430.57 369.60 431.46 373.79 434.21 C 379.96 438.15 383.56 445.78 382.61 453.05 C 381.92 458.63 378.61 463.86 373.77 466.76 C 366.63 471.22 356.58 470.33 350.45 464.51 C 344.44 459.06 342.71 449.61 346.18 442.31 C 348.63 436.97 353.67 432.92 359.41 431.66 M 361.30 445.36 C 357.80 446.92 357.42 452.31 360.73 454.29 C 363.67 456.53 367.95 454.31 368.60 450.90 C 369.72 446.98 364.79 443.30 361.30 445.36 Z" />
<path fill="#000000" opacity="1.00" d=" M 276.35 453.36 C 279.94 450.79 285.51 453.63 285.58 458.04 C 286.04 462.38 280.93 465.86 277.05 463.82 C 272.88 462.10 272.44 455.62 276.35 453.36 Z" />
</g>
</svg>
