<svg width="19" height="15" viewBox="0 0 19 15" fill="none" xmlns="http://www.w3.org/2000/svg">
<path d="M15.8202 0.010108H2.50016C2.08682 0.010108 1.70016 0.110107 1.34016 0.310108C0.980156 0.510108 0.69349 0.783441 0.480156 1.13011C0.266823 1.47677 0.160156 1.85677 0.160156 2.27011V12.2701C0.160156 12.6834 0.26349 13.0701 0.470156 13.4301C0.676823 13.7901 0.956823 14.0768 1.31016 14.2901C1.66349 14.5034 2.06016 14.6101 2.50016 14.6101H15.8202C16.2335 14.6101 16.6202 14.5068 16.9802 14.3001C17.3402 14.0934 17.6268 13.8134 17.8402 13.4601C18.0535 13.1068 18.1602 12.7101 18.1602 12.2701V2.27011C18.1602 1.85677 18.0535 1.47677 17.8402 1.13011C17.6268 0.783441 17.3402 0.510108 16.9802 0.310108C16.6202 0.110107 16.2335 0.010108 15.8202 0.010108ZM2.50016 1.27011H15.8202C16.1135 1.27011 16.3535 1.37011 16.5402 1.57011C16.7268 1.77011 16.8202 2.00344 16.8202 2.27011V2.77011L9.66016 7.35011C9.48682 7.43011 9.30682 7.47011 9.12016 7.47011C8.93349 7.47011 8.75349 7.43011 8.58016 7.35011L1.50016 2.77011V2.27011C1.50016 1.97677 1.59349 1.73677 1.78016 1.55011C1.96682 1.36344 2.20682 1.27011 2.50016 1.27011ZM15.8202 13.3501H2.50016C2.22016 13.3501 1.98349 13.2468 1.79016 13.0401C1.59682 12.8334 1.50016 12.6034 1.50016 12.3501V4.27011L8.00016 8.43011C8.28016 8.65677 8.66682 8.77011 9.16016 8.77011C9.65349 8.77011 10.0402 8.65677 10.3202 8.43011L16.8202 4.27011V12.2701C16.8202 12.5634 16.7268 12.8168 16.5402 13.0301C16.3535 13.2434 16.1135 13.3501 15.8202 13.3501Z" fill="#9CA3AF"/>
</svg>
