<?xml version="1.0" encoding="UTF-8" ?>
<!DOCTYPE svg PUBLIC "-//W3C//DTD SVG 1.1//EN" "http://www.w3.org/Graphics/SVG/1.1/DTD/svg11.dtd">
<svg width="512pt" height="512pt" viewBox="0 0 512 512" version="1.1" xmlns="http://www.w3.org/2000/svg">
<g id="#000000ff">
<path fill="#000000" opacity="1.00" d=" M 177.47 14.61 C 181.65 4.56 196.43 2.17 203.63 10.31 C 221.08 27.78 238.56 45.22 256.01 62.70 C 273.66 45.10 291.22 27.42 308.89 9.84 C 314.56 4.05 324.70 3.87 330.63 9.36 C 335.77 13.78 337.37 21.59 334.65 27.75 C 333.15 31.32 330.10 33.84 327.46 36.54 C 308.97 55.02 290.48 73.49 272.00 91.99 C 272.00 137.42 271.99 182.84 272.01 228.27 C 311.23 205.67 350.40 182.97 389.64 160.41 C 396.99 133.49 404.08 106.50 411.37 79.56 C 413.38 71.35 422.62 65.78 430.81 68.17 C 439.22 70.12 444.73 79.65 442.22 87.92 C 435.86 111.80 429.41 135.67 423.05 159.55 C 446.76 165.84 470.44 172.22 494.12 178.60 C 498.98 179.72 503.24 183.11 505.23 187.71 C 508.09 193.65 506.51 201.22 501.76 205.73 C 497.73 209.74 491.49 211.17 486.06 209.58 C 460.14 202.57 434.18 195.72 408.27 188.70 C 407.12 188.51 405.79 187.83 404.74 188.64 C 365.85 211.09 326.97 233.57 288.07 256.00 C 326.95 278.42 365.81 300.89 404.68 323.33 C 405.84 324.19 407.26 323.44 408.50 323.24 C 434.37 316.25 460.26 309.36 486.13 302.40 C 491.54 300.82 497.69 302.24 501.72 306.21 C 506.75 310.85 508.14 318.89 504.92 324.94 C 502.84 329.22 498.73 332.30 494.13 333.39 C 470.45 339.78 446.76 346.16 423.05 352.45 C 429.27 375.72 435.49 398.99 441.76 422.25 C 443.51 427.36 443.06 433.30 439.74 437.69 C 435.53 443.86 426.72 446.07 420.04 442.79 C 415.80 440.84 412.58 436.95 411.38 432.45 C 404.06 405.52 397.00 378.51 389.63 351.58 C 350.39 329.03 311.23 306.33 272.01 283.73 C 271.99 329.15 272.01 374.57 272.00 420.00 C 291.78 439.84 311.66 459.61 331.43 479.47 C 337.56 485.42 337.41 496.31 331.17 502.13 C 325.31 508.09 314.71 508.10 308.86 502.13 C 291.20 484.56 273.65 466.88 256.00 449.30 C 240.40 464.92 224.78 480.54 209.16 496.15 C 204.95 500.17 201.12 505.50 194.94 506.38 C 187.42 507.96 179.33 503.27 176.92 496.00 C 174.96 490.38 176.29 483.70 180.56 479.49 C 200.37 459.67 220.18 439.84 240.00 420.03 C 239.99 374.61 240.00 329.18 240.00 283.76 C 200.77 306.33 161.65 329.07 122.38 351.57 C 114.99 378.47 107.95 405.47 100.64 432.39 C 98.77 440.00 90.79 445.37 83.03 444.17 C 75.92 443.35 69.94 437.11 69.27 430.01 C 68.83 426.24 70.19 422.62 71.11 419.03 C 77.06 396.84 83.02 374.65 88.94 352.45 C 65.48 346.12 42.01 339.79 18.52 333.57 C 13.91 332.57 9.65 329.78 7.42 325.56 C 3.37 318.86 5.43 309.34 11.86 304.90 C 16.02 301.73 21.63 301.03 26.57 302.57 C 52.53 309.55 78.51 316.46 104.46 323.48 C 106.98 324.46 109.03 322.13 111.14 321.15 C 148.74 299.41 186.39 277.75 223.99 256.00 C 185.31 233.64 146.60 211.35 107.92 188.98 C 106.91 188.22 105.66 188.08 104.48 188.52 C 78.30 195.57 52.11 202.60 25.92 209.58 C 18.16 212.02 9.10 207.56 6.40 199.89 C 3.24 192.36 7.25 182.90 14.70 179.70 C 18.38 178.22 22.31 177.53 26.11 176.44 C 47.05 170.78 68.01 165.24 88.94 159.55 C 82.59 135.69 76.16 111.85 69.79 88.00 C 68.37 83.12 69.50 77.68 72.68 73.73 C 77.14 67.81 86.05 65.86 92.54 69.47 C 96.54 71.48 99.51 75.25 100.64 79.57 C 107.91 106.50 115.02 133.46 122.34 160.38 C 161.60 182.93 200.76 205.65 240.00 228.24 C 240.00 182.81 240.00 137.38 240.00 91.96 C 220.14 72.13 200.31 52.27 180.48 32.42 C 175.92 27.85 174.78 20.43 177.47 14.61 Z" />
</g>
</svg>
