<?xml version="1.0" encoding="UTF-8" ?>
<!DOCTYPE svg PUBLIC "-//W3C//DTD SVG 1.1//EN" "http://www.w3.org/Graphics/SVG/1.1/DTD/svg11.dtd">
<svg width="512pt" height="512pt" viewBox="0 0 512 512" version="1.1" xmlns="http://www.w3.org/2000/svg">
<g id="#000000ff">
<path fill="#000000" opacity="1.00" d=" M 353.44 0.00 L 412.90 0.00 C 413.29 10.78 412.50 21.88 407.84 31.78 C 399.33 51.28 379.34 65.07 358.06 65.96 C 343.31 66.21 328.56 65.99 313.81 66.07 C 313.79 77.45 313.80 88.83 313.81 100.21 C 332.97 88.06 359.17 87.99 377.98 100.89 C 403.21 118.75 421.13 146.56 427.01 176.91 C 433.08 206.97 427.44 239.15 411.46 265.33 C 436.62 268.65 460.53 280.48 478.37 298.53 C 498.52 318.57 510.53 346.24 512.00 374.59 L 512.00 385.24 C 510.75 405.96 504.32 426.41 492.72 443.68 C 475.26 470.20 446.48 488.96 415.09 493.94 C 396.74 497.05 377.71 495.31 360.08 489.44 C 340.90 503.04 317.83 510.78 294.38 512.00 L 170.41 512.00 C 142.37 511.39 114.51 503.24 90.72 488.35 C 61.15 470.01 37.95 441.61 26.05 408.89 C 18.44 388.66 15.89 366.90 16.51 345.38 C 7.83 342.14 1.40 334.17 0.00 325.02 L 0.00 303.09 C 1.18 292.55 9.42 283.15 19.95 281.26 C 27.07 280.30 34.29 281.01 41.46 280.81 C 34.32 271.28 31.29 258.74 34.09 247.08 C 23.63 245.03 13.91 239.12 7.73 230.38 C 3.23 224.27 0.79 216.88 0.00 209.38 L 0.00 203.10 C 1.16 192.48 6.09 182.23 14.28 175.28 C 24.65 166.13 39.80 162.80 53.02 166.93 C 61.53 169.41 68.89 174.94 74.33 181.87 C 80.38 173.84 89.25 168.08 99.09 165.93 C 99.11 160.18 99.10 154.43 99.09 148.68 C 85.38 148.64 71.68 148.70 57.97 148.65 C 44.04 148.64 30.16 143.49 19.73 134.24 C 7.75 123.86 0.52 108.39 0.00 92.56 L 0.00 82.60 C 19.66 82.61 39.33 82.57 58.99 82.62 C 74.22 82.75 88.97 89.59 99.52 100.46 C 101.29 86.45 108.21 73.15 118.90 63.90 C 129.31 54.67 143.14 49.53 157.04 49.56 C 176.25 49.49 195.47 49.56 214.68 49.53 C 214.71 55.03 214.92 60.58 214.08 66.04 C 212.20 79.26 205.54 91.71 195.62 100.63 C 185.18 110.15 171.15 115.57 157.03 115.60 C 143.23 115.61 129.42 115.58 115.62 115.61 C 115.61 132.39 115.60 149.16 115.63 165.94 C 125.48 168.08 134.31 173.88 140.41 181.87 C 150.64 167.92 169.96 161.44 186.38 167.39 C 194.05 140.43 211.05 116.11 234.15 100.14 C 252.80 87.64 278.51 88.22 297.28 100.19 C 297.33 85.79 297.23 71.38 297.33 56.99 C 297.48 42.18 303.64 27.57 314.13 17.12 C 324.41 6.66 338.79 0.49 353.44 0.00 M 314.62 49.51 C 328.75 49.51 342.89 49.62 357.02 49.46 C 375.44 48.96 392.04 34.55 395.57 16.55 C 381.39 16.57 367.20 16.44 353.02 16.60 C 334.68 17.19 318.12 31.54 314.62 49.51 M 116.44 99.06 C 130.62 99.03 144.81 99.15 158.99 99.00 C 177.35 98.43 193.85 84.03 197.38 66.08 C 183.25 66.10 169.12 65.97 154.99 66.14 C 136.59 66.64 119.93 81.04 116.44 99.06 M 17.32 99.07 C 20.77 116.82 36.92 131.11 55.03 132.00 C 69.44 132.30 83.86 132.06 98.28 132.12 C 94.79 114.22 78.38 99.88 60.11 99.19 C 45.85 98.91 31.58 99.14 17.32 99.07 M 243.59 113.70 C 222.40 128.32 207.22 151.15 201.26 176.13 C 209.47 183.77 214.64 194.70 214.67 205.98 C 214.92 216.53 210.56 226.81 203.54 234.58 C 209.53 252.22 219.94 268.56 234.09 280.72 C 268.39 280.84 302.70 280.88 336.99 280.70 C 350.59 272.98 365.50 267.36 381.08 265.42 C 376.07 251.67 367.77 239.22 357.53 228.82 C 361.40 224.91 365.30 221.03 369.19 217.15 C 380.91 228.85 390.09 243.01 396.22 258.39 C 411.09 235.56 416.12 206.81 410.82 180.17 C 405.84 154.39 390.82 130.77 369.68 115.23 C 361.17 109.15 350.30 106.59 339.97 108.06 C 329.94 109.36 320.54 114.45 313.79 121.95 C 313.82 128.09 313.79 134.24 313.81 140.39 C 308.30 140.41 302.79 140.41 297.28 140.38 C 297.30 134.23 297.27 128.08 297.30 121.93 C 284.36 106.93 260.34 102.65 243.59 113.70 M 36.18 182.21 C 23.80 184.56 14.69 197.43 16.77 209.90 C 18.29 223.14 31.92 233.32 45.06 230.91 C 58.06 229.22 68.00 215.90 65.80 202.94 C 64.19 189.22 49.66 178.97 36.18 182.21 M 102.18 182.22 C 89.80 184.61 80.72 197.52 82.85 210.00 C 84.42 223.15 97.94 233.26 111.01 230.93 C 124.06 229.30 134.08 215.93 131.85 202.94 C 130.26 189.20 115.66 178.94 102.18 182.22 M 168.20 182.23 C 155.84 184.64 146.80 197.53 148.91 209.98 C 150.47 223.15 164.00 233.27 177.09 230.93 C 190.13 229.29 200.17 215.91 197.91 202.91 C 196.31 189.16 181.68 178.92 168.20 182.23 M 74.33 231.02 C 68.75 238.31 60.83 243.79 51.93 246.16 C 49.79 250.76 48.93 256.00 50.07 260.99 C 52.11 271.71 62.00 280.28 72.92 280.71 C 83.49 281.49 93.95 274.57 97.52 264.62 C 99.86 258.70 99.43 251.98 96.80 246.23 C 87.91 243.77 79.89 238.40 74.33 231.02 M 140.37 231.01 C 134.12 239.34 124.76 245.15 114.53 247.05 C 116.09 253.10 114.89 259.63 117.49 265.43 C 121.10 274.38 130.31 280.72 139.98 280.75 C 149.76 281.05 159.26 274.86 163.07 265.88 C 165.90 259.67 165.73 252.36 162.84 246.21 C 153.93 243.79 145.96 238.35 140.37 231.01 M 180.60 247.03 C 183.44 258.69 180.40 271.28 173.24 280.80 C 185.79 280.79 198.35 280.82 210.91 280.79 C 201.80 270.02 194.54 257.71 189.52 244.53 C 186.62 245.61 183.62 246.39 180.60 247.03 M 402.65 281.08 C 404.67 291.87 404.78 302.86 404.64 313.79 C 399.14 313.81 393.63 313.80 388.13 313.80 C 388.24 302.95 388.22 292.01 385.92 281.34 C 360.57 283.91 336.54 296.86 320.30 316.46 C 304.57 335.21 296.03 360.00 297.52 384.47 C 325.84 412.88 354.15 441.30 382.43 469.74 C 380.15 472.04 377.86 474.34 375.57 476.63 C 388.34 479.41 401.65 479.72 414.51 477.28 C 443.89 472.01 470.18 452.50 484.01 426.07 C 495.02 405.43 498.24 380.82 493.03 358.02 C 488.65 338.43 478.03 320.33 463.19 306.84 C 446.71 291.70 424.99 282.45 402.65 281.08 M 16.50 306.99 C 16.58 312.30 16.36 317.62 16.62 322.92 C 16.87 327.12 20.87 330.50 25.03 330.31 C 76.39 330.37 127.74 330.32 179.10 330.33 C 185.45 318.03 193.93 306.90 203.85 297.27 C 144.25 297.28 84.65 297.23 25.06 297.29 C 19.91 297.01 15.81 301.99 16.50 306.99 M 210.72 297.27 C 220.99 307.67 231.37 317.96 241.62 328.37 C 242.59 329.22 243.48 330.63 245.01 330.33 C 260.69 330.34 276.39 330.34 292.08 330.33 C 297.96 318.06 305.94 306.81 315.63 297.27 C 280.66 297.26 245.69 297.27 210.72 297.27 M 182.07 379.80 C 211.25 379.76 240.43 379.84 269.61 379.86 C 248.93 359.04 228.21 338.27 207.51 317.48 C 192.62 334.81 183.67 357.03 182.07 379.80 M 33.04 346.87 C 33.01 353.92 32.98 360.99 33.64 368.02 C 36.21 396.95 48.21 424.90 67.25 446.82 C 93.96 478.06 134.88 496.44 176.00 495.47 C 193.13 495.45 210.26 495.49 227.39 495.45 C 199.18 479.24 177.65 451.64 169.58 420.05 C 163.13 396.11 164.18 370.32 172.16 346.88 C 125.78 346.85 79.41 346.87 33.04 346.87 M 260.10 346.87 C 267.18 353.99 274.26 361.10 281.36 368.20 C 282.14 360.98 283.59 353.84 285.62 346.87 C 277.11 346.86 268.61 346.86 260.10 346.87 M 182.17 396.27 C 183.90 418.77 192.88 440.63 207.59 457.76 C 228.07 437.31 248.57 416.87 269.04 396.41 C 240.08 396.20 211.12 396.45 182.17 396.27 M 219.24 469.45 C 236.28 484.27 258.15 493.40 280.67 495.07 C 280.71 466.06 280.73 437.06 280.75 408.06 C 260.25 428.52 239.77 449.01 219.24 469.45 M 297.28 407.64 C 297.25 436.80 297.22 465.96 297.20 495.12 C 319.81 493.45 341.80 484.38 358.91 469.50 C 338.36 448.89 317.84 428.24 297.28 407.64 Z" />
<path fill="#000000" opacity="1.00" d=" M 346.85 123.80 C 350.75 123.98 354.65 124.95 357.93 127.14 C 383.50 144.62 398.40 176.08 396.20 206.94 C 390.72 206.62 385.23 206.28 379.75 205.95 C 380.93 186.89 374.63 167.44 362.09 152.99 C 357.61 148.09 352.94 142.96 346.86 140.07 C 346.82 134.65 346.84 129.22 346.85 123.80 Z" />
<path fill="#000000" opacity="1.00" d=" M 358.22 315.89 C 367.62 324.04 379.59 329.22 392.02 330.11 C 407.34 331.36 423.02 326.09 434.51 315.89 C 438.23 319.95 441.82 324.13 445.48 328.24 C 432.00 340.23 414.00 346.94 395.97 346.82 C 378.22 346.73 360.59 340.03 347.29 328.26 C 350.93 324.13 354.57 320.00 358.22 315.89 Z" />
<path fill="#000000" opacity="1.00" d=" M 462.28 383.92 C 462.51 382.62 462.07 381.05 462.79 379.92 C 468.18 379.76 473.58 379.92 478.98 379.87 C 478.99 399.52 471.73 419.05 458.80 433.85 C 443.43 451.84 420.06 462.55 396.40 462.47 C 396.38 456.97 396.39 451.47 396.39 445.98 C 411.91 445.91 427.36 440.31 439.14 430.17 C 452.67 418.73 461.37 401.65 462.28 383.92 Z" />
</g>
</svg>
