<?xml version="1.0" encoding="UTF-8" ?>
<!DOCTYPE svg PUBLIC "-//W3C//DTD SVG 1.1//EN" "http://www.w3.org/Graphics/SVG/1.1/DTD/svg11.dtd">
<svg width="512pt" height="512pt" viewBox="0 0 512 512" version="1.1" xmlns="http://www.w3.org/2000/svg">
<g id="#000000ff">
<path fill="#000000" opacity="1.00" d=" M 53.82 58.70 C 85.90 32.35 131.16 23.32 171.00 34.80 C 190.00 40.24 207.26 50.87 221.59 64.37 C 235.68 77.27 246.83 93.05 256.00 109.73 C 267.71 88.28 283.05 68.38 302.97 53.97 C 319.45 41.32 339.45 33.39 360.05 30.88 C 382.15 28.25 404.98 31.10 425.62 39.49 C 459.23 52.87 485.85 81.17 499.49 114.42 C 507.70 133.64 511.50 154.52 512.00 175.36 L 512.00 178.65 C 511.61 203.74 505.30 228.61 493.92 250.95 C 475.45 287.78 446.73 318.07 417.28 346.34 C 389.60 372.39 360.65 397.05 331.78 421.76 C 309.88 440.56 288.03 459.42 266.12 478.21 C 260.60 483.25 251.37 483.24 245.86 478.20 C 211.44 448.57 176.97 419.00 142.53 389.40 C 114.41 364.66 86.12 339.92 61.09 311.97 C 39.08 287.46 19.41 259.97 8.68 228.55 C 3.06 212.52 0.43 195.57 0.00 178.62 L 0.00 175.41 C 0.44 163.89 1.39 152.33 4.06 141.08 C 11.00 109.20 28.23 79.21 53.82 58.70 M 78.54 77.61 C 65.18 86.73 54.35 99.27 46.33 113.26 C 28.87 144.48 25.39 183.04 36.45 217.00 C 46.32 246.90 65.68 272.49 86.68 295.50 C 106.58 317.18 128.34 337.07 150.49 356.42 C 166.91 371.13 183.81 385.29 200.52 399.66 C 219.02 415.51 237.49 431.39 256.00 447.24 C 276.35 429.82 296.64 412.36 316.99 394.95 C 343.37 372.42 369.71 349.82 395.04 326.11 C 419.66 302.54 443.74 277.74 461.25 248.28 C 472.87 228.50 480.90 206.18 481.69 183.09 C 483.64 146.30 469.82 107.76 441.33 83.64 C 412.05 58.39 366.98 52.00 332.70 70.67 C 318.11 78.38 305.73 89.84 295.84 102.96 C 285.76 116.71 277.61 131.87 271.77 147.89 C 270.36 151.79 269.00 156.02 265.69 158.75 C 260.35 163.50 251.55 163.48 246.25 158.69 C 243.35 156.29 241.96 152.67 240.72 149.24 C 235.09 133.33 227.11 118.31 217.36 104.56 C 207.26 90.78 194.50 78.71 179.34 70.69 C 148.02 53.61 107.52 57.43 78.54 77.61 Z" />
</g>
</svg>
