<?xml version="1.0" encoding="UTF-8" ?>
<!DOCTYPE svg PUBLIC "-//W3C//DTD SVG 1.1//EN" "http://www.w3.org/Graphics/SVG/1.1/DTD/svg11.dtd">
<svg width="512pt" height="512pt" viewBox="0 0 512 512" version="1.1" xmlns="http://www.w3.org/2000/svg">
<g id="#000000ff">
<path fill="#e70a09" opacity="1.00" d=" M 46.74 0.00 L 179.06 0.00 C 173.63 32.12 168.36 64.27 162.95 96.40 C 110.04 96.41 57.12 96.41 4.21 96.40 C 13.73 67.83 23.19 39.23 32.81 10.69 C 34.71 4.65 40.45 0.35 46.74 0.00 Z" />
<path fill="#e70a09" opacity="1.00" d=" M 209.47 0.00 L 302.56 0.00 C 307.91 32.13 313.29 64.26 318.61 96.40 C 276.87 96.41 235.13 96.41 193.39 96.40 C 198.73 64.26 204.06 32.12 209.47 0.00 Z" />
<path fill="#e70a09" opacity="1.00" d=" M 332.94 0.00 L 465.13 0.00 C 471.46 0.28 477.26 4.60 479.18 10.66 C 488.80 39.21 498.27 67.82 507.79 96.40 C 454.88 96.41 401.96 96.41 349.05 96.40 C 343.64 64.27 338.37 32.12 332.94 0.00 Z" />
<path fill="#e70a09" opacity="1.00" d=" M 0.00 126.40 C 53.55 126.41 107.10 126.39 160.65 126.41 C 160.67 158.54 160.66 190.67 160.65 222.80 C 127.81 222.84 94.98 222.79 62.14 222.83 C 62.12 255.66 62.12 288.50 62.13 321.33 C 191.38 321.35 320.62 321.35 449.87 321.33 C 449.88 288.50 449.88 255.66 449.86 222.83 C 417.02 222.79 384.18 222.84 351.35 222.80 C 351.34 190.67 351.33 158.54 351.35 126.41 C 404.90 126.39 458.45 126.41 512.00 126.40 L 512.00 208.54 C 511.62 215.71 505.70 222.16 498.46 222.68 C 492.28 223.01 486.08 222.71 479.89 222.83 C 479.84 314.21 479.93 405.60 479.84 496.99 C 480.00 504.77 473.32 511.66 465.58 512.00 L 46.48 512.00 C 38.70 511.71 31.98 504.76 32.15 496.93 C 32.07 405.56 32.16 314.20 32.11 222.83 C 25.92 222.71 19.71 223.01 13.53 222.68 C 6.31 222.15 0.41 215.73 0.00 208.59 L 0.00 126.40 Z" />
<path fill="#e70a09" opacity="1.00" d=" M 190.65 126.43 C 234.22 126.39 277.78 126.39 321.35 126.43 C 321.34 158.55 321.36 190.68 321.33 222.81 C 277.78 222.82 234.22 222.82 190.67 222.81 C 190.64 190.68 190.67 158.56 190.65 126.43 Z" />
</g>
</svg>
