<?xml version="1.0" encoding="UTF-8" ?>
<!DOCTYPE svg PUBLIC "-//W3C//DTD SVG 1.1//EN" "http://www.w3.org/Graphics/SVG/1.1/DTD/svg11.dtd">
<svg width="512pt" height="512pt" viewBox="0 0 512 512" version="1.1" xmlns="http://www.w3.org/2000/svg">
<g id="#000000ff">
<path fill="#000000" opacity="1.00" d=" M 95.60 71.55 C 119.00 60.41 145.11 55.55 170.96 56.14 C 187.01 56.48 203.06 56.65 219.09 57.69 C 266.52 60.52 313.95 66.22 360.08 77.88 C 387.46 84.41 414.31 93.72 439.27 106.82 C 462.06 119.04 483.60 135.33 497.27 157.66 C 506.65 172.54 511.37 190.00 512.00 207.51 L 512.00 281.59 C 511.46 303.12 505.41 324.58 493.90 342.84 C 473.89 375.51 437.41 397.50 399.07 399.29 C 382.64 399.99 366.09 400.25 349.90 403.48 C 327.16 407.41 305.25 415.08 284.01 423.97 C 261.08 433.01 238.58 443.49 214.58 449.49 C 183.80 457.50 150.81 458.37 120.09 449.60 C 94.49 442.37 70.73 428.78 51.49 410.42 C 32.43 392.35 17.73 369.68 9.20 344.82 C 3.29 328.37 0.64 310.92 0.00 293.49 L 0.00 218.54 C 0.65 200.83 3.36 183.09 9.49 166.41 C 23.85 124.91 55.72 89.88 95.60 71.55 M 141.97 78.04 C 100.28 84.41 62.20 110.40 40.76 146.68 C 15.61 187.59 13.31 241.38 34.74 284.34 C 54.60 325.87 95.44 356.66 140.95 363.89 C 170.11 368.90 200.16 364.34 227.90 354.70 C 254.04 345.52 279.11 333.51 305.31 324.49 C 324.52 318.05 344.34 313.20 364.54 311.31 C 376.29 309.80 388.18 310.10 399.99 309.35 C 404.37 308.87 409.24 310.57 411.22 314.76 C 414.36 320.41 410.35 328.27 403.92 328.99 C 391.64 330.27 379.22 329.53 366.96 331.16 C 355.49 332.31 344.09 334.33 332.93 337.25 C 286.67 348.58 245.39 375.17 198.15 383.13 C 177.02 386.68 155.19 387.17 134.10 383.07 C 105.75 377.72 78.93 364.67 57.16 345.75 C 42.31 333.03 30.07 317.47 20.36 300.53 C 22.84 338.33 40.77 374.85 69.40 399.69 C 87.43 415.71 109.58 427.06 133.13 432.29 C 164.55 439.52 197.60 435.16 227.77 424.65 C 250.48 416.64 272.43 406.64 294.95 398.12 C 312.11 391.75 329.74 386.47 347.83 383.49 C 364.37 380.32 381.24 380.01 398.02 379.35 C 430.05 377.80 460.47 359.38 477.11 332.03 C 487.59 315.40 492.39 295.59 492.00 276.01 C 487.98 280.98 484.59 286.47 479.97 290.94 C 476.64 294.17 473.86 298.75 468.92 299.53 C 463.22 300.67 457.36 295.78 457.45 289.98 C 457.25 284.75 461.70 281.33 464.92 277.89 C 481.30 260.47 491.15 236.99 491.85 213.07 C 492.64 195.82 487.64 178.39 477.73 164.25 C 465.76 146.83 448.18 134.17 429.76 124.31 C 398.89 108.04 364.94 98.82 330.97 91.67 C 279.97 81.50 227.96 76.91 176.01 76.26 C 164.65 75.92 153.19 76.04 141.97 78.04 Z" />
<path fill="#000000" opacity="1.00" d=" M 151.53 96.82 C 166.96 95.36 182.46 96.59 197.92 96.65 C 202.71 96.95 208.41 96.12 212.15 99.81 C 216.36 103.64 216.05 111.01 211.60 114.53 C 207.27 118.19 201.22 116.44 196.07 116.63 C 177.34 116.64 158.23 114.34 139.88 119.20 C 113.50 125.55 90.00 142.78 75.81 165.88 C 64.42 184.00 58.96 205.73 60.27 227.08 C 61.47 250.60 71.11 273.54 86.89 290.99 C 103.31 309.47 126.47 321.84 151.00 325.02 C 174.15 328.05 197.57 323.23 219.27 315.24 C 241.49 307.16 262.99 297.22 285.27 289.29 C 295.20 285.38 305.59 282.85 315.77 279.69 C 337.39 273.93 359.68 270.69 382.04 269.92 C 390.03 269.68 398.15 270.02 405.97 268.05 C 425.34 263.63 441.84 248.77 448.45 230.06 C 452.39 218.61 453.71 205.49 448.86 194.10 C 443.21 181.50 432.03 172.52 420.64 165.27 C 391.06 147.57 357.43 138.17 323.94 131.07 C 311.10 128.31 298.13 126.21 285.14 124.29 C 281.57 123.86 277.67 122.65 275.74 119.35 C 272.72 114.99 274.22 108.40 278.74 105.68 C 282.36 103.21 286.90 104.32 290.91 104.92 C 329.38 110.65 367.73 119.14 403.73 134.16 C 422.18 142.10 440.27 152.09 454.20 166.82 C 463.27 176.44 469.99 188.66 471.47 201.94 C 473.71 221.94 467.69 242.64 455.36 258.51 C 442.56 275.25 422.91 286.55 401.98 289.06 C 388.20 290.45 374.26 289.66 360.54 291.74 C 333.93 294.57 307.95 301.81 283.03 311.40 C 263.63 318.83 244.67 327.39 225.10 334.37 C 200.87 343.26 174.69 348.20 148.90 344.91 C 122.94 341.62 98.21 329.80 79.25 311.78 C 58.76 292.50 44.98 266.10 41.30 238.17 C 36.64 205.68 45.53 171.46 65.63 145.49 C 85.99 118.40 117.82 100.38 151.53 96.82 Z" />
<path fill="#000000" opacity="1.00" d=" M 232.37 99.54 C 239.45 96.49 248.13 103.44 246.01 111.05 C 244.64 118.55 234.25 121.28 229.05 115.93 C 223.80 111.33 225.76 101.75 232.37 99.54 Z" />
<path fill="#000000" opacity="1.00" d=" M 164.52 136.82 C 179.26 134.22 195.21 137.50 207.09 146.78 C 216.49 153.71 222.97 164.40 224.84 175.92 C 226.82 189.15 221.65 202.90 212.28 212.27 C 194.64 230.51 163.57 232.69 143.24 217.69 C 132.83 210.44 125.62 198.73 124.12 186.11 C 122.86 174.68 126.91 162.98 134.24 154.23 C 141.83 145.02 152.88 139.07 164.52 136.82 M 167.47 156.60 C 157.35 158.57 147.66 165.59 144.79 175.82 C 142.50 183.65 145.11 192.40 150.82 198.11 C 162.79 210.50 184.64 210.88 197.22 199.21 C 202.50 194.41 205.77 187.24 205.11 180.05 C 204.65 173.16 200.66 166.87 195.27 162.72 C 187.50 156.70 177.03 154.67 167.47 156.60 Z" />
<path fill="#000000" opacity="1.00" d=" M 441.45 297.49 C 448.91 296.11 455.34 305.00 451.64 311.65 C 448.75 318.21 438.72 319.18 434.74 313.16 C 430.32 307.46 434.21 298.14 441.45 297.49 Z" />
</g>
</svg>
