<?xml version="1.0" encoding="UTF-8" ?>
<!DOCTYPE svg PUBLIC "-//W3C//DTD SVG 1.1//EN" "http://www.w3.org/Graphics/SVG/1.1/DTD/svg11.dtd">
<svg width="512pt" height="512pt" viewBox="0 0 512 512" version="1.1" xmlns="http://www.w3.org/2000/svg">
<g id="#000000ff">
<path fill="#000000" opacity="1.00" d=" M 212.34 0.00 L 218.65 0.00 C 251.04 0.57 283.32 8.19 312.32 22.66 C 336.40 34.94 358.51 51.29 376.48 71.53 C 382.53 77.59 387.29 84.74 392.53 91.47 C 422.74 133.72 436.03 187.67 428.88 239.11 C 424.53 273.26 411.27 306.17 391.08 334.02 C 386.35 341.20 380.37 347.41 374.97 354.07 C 417.47 395.89 459.96 437.72 502.47 479.54 C 507.05 483.72 511.96 488.57 512.00 495.26 L 512.00 496.70 C 511.44 504.71 504.60 511.39 496.64 512.00 L 494.36 512.00 C 490.17 511.57 486.19 509.77 483.23 506.75 C 439.13 463.41 395.11 419.99 351.00 376.65 C 335.30 388.74 318.30 399.25 299.94 406.80 C 277.34 416.39 253.06 422.01 228.55 423.42 C 183.78 426.38 138.07 415.00 100.17 390.90 C 65.44 369.25 36.94 337.49 19.61 300.36 C 7.15 273.93 0.67 244.83 0.00 215.65 L 0.00 208.39 C 0.86 163.18 16.47 118.21 44.81 82.88 C 60.39 62.83 79.69 45.60 101.36 32.38 C 134.38 11.49 173.37 0.68 212.34 0.00 M 195.50 33.73 C 168.26 36.87 141.58 45.71 118.34 60.34 C 78.75 84.66 49.06 124.89 38.32 170.18 C 27.34 214.68 34.54 263.47 58.36 302.68 C 81.86 342.51 121.41 372.36 165.98 384.51 C 207.32 396.03 252.73 392.67 291.74 374.72 C 335.98 354.88 371.66 316.51 387.53 270.62 C 401.66 230.88 400.79 186.00 385.10 146.84 C 366.22 98.50 325.11 59.64 276.02 42.99 C 250.34 33.81 222.59 31.11 195.50 33.73 Z" />
</g>
</svg>
