<?xml version="1.0" encoding="UTF-8" ?>
<!DOCTYPE svg PUBLIC "-//W3C//DTD SVG 1.1//EN" "http://www.w3.org/Graphics/SVG/1.1/DTD/svg11.dtd">
<svg width="512pt" height="512pt" viewBox="0 0 512 512" version="1.1" xmlns="http://www.w3.org/2000/svg">
<g id="#000000ff">
<path fill="#000000" opacity="1.00" d=" M 236.58 16.78 C 278.59 13.35 321.45 21.29 359.44 39.51 C 412.93 64.88 456.15 110.91 478.23 165.82 C 497.01 211.83 500.85 263.74 489.17 312.03 C 483.91 334.12 475.42 355.43 464.16 375.15 C 459.67 383.22 454.28 390.73 449.25 398.45 C 426.56 429.15 396.51 454.40 362.26 471.29 C 330.85 486.77 296.00 495.51 260.97 496.00 C 221.59 497.05 182.05 487.85 146.98 469.97 C 107.37 449.84 73.47 418.49 50.60 380.37 C 28.98 344.84 16.97 303.58 15.93 262.02 C 14.73 218.12 26.02 174.00 48.02 136.01 C 76.12 86.90 122.29 48.55 175.68 29.83 C 195.29 22.84 215.83 18.45 236.58 16.78 M 151.32 76.29 C 117.41 95.97 89.29 125.46 71.33 160.31 C 54.20 193.29 46.14 230.91 48.36 268.00 C 50.47 305.31 62.91 341.96 83.94 372.85 C 116.34 339.52 158.58 315.89 203.99 305.93 C 246.83 296.31 292.30 298.88 333.80 313.15 C 369.34 325.28 401.88 345.95 428.06 372.86 C 444.11 349.15 455.29 322.14 460.48 293.97 C 469.44 246.20 461.02 195.34 436.79 153.17 C 419.98 123.58 395.76 98.25 366.98 80.09 C 335.45 60.05 298.37 48.90 261.03 48.11 C 222.78 47.03 184.35 57.01 151.32 76.29 Z" />
<path fill="#000000" opacity="1.00" d=" M 250.20 80.21 C 271.08 78.90 292.31 84.69 309.63 96.41 C 327.42 108.34 340.96 126.43 347.42 146.84 C 354.03 167.48 353.43 190.35 345.57 210.55 C 336.47 234.31 317.52 254.07 294.14 264.10 C 277.51 271.35 258.79 273.65 240.89 270.75 C 218.01 267.19 196.65 254.94 181.96 237.05 C 167.22 219.26 159.26 196.02 160.08 172.92 C 160.72 150.96 169.23 129.33 183.76 112.83 C 200.39 93.68 224.86 81.62 250.20 80.21 Z" />
</g>
</svg>
