<svg width="12" height="12" viewBox="0 0 12 12" fill="none" xmlns="http://www.w3.org/2000/svg">
<path d="M11.1492 5.0871H6.74616V0.616102C6.74616 0.468769 6.69516 0.338435 6.59316 0.225101C6.49116 0.111769 6.35516 0.0551023 6.18516 0.0551023C6.01516 0.0551023 5.87916 0.111769 5.77716 0.225101C5.67516 0.338435 5.62416 0.468769 5.62416 0.616102V5.0191H1.22116C1.07382 5.0191 0.94349 5.0701 0.830156 5.1721C0.716823 5.2741 0.660156 5.41294 0.660156 5.5886C0.660156 5.76427 0.711156 5.90027 0.813156 5.9966C0.915156 6.09294 1.05116 6.1411 1.22116 6.1411H5.62416V10.5441C5.62416 10.6914 5.67516 10.8218 5.77716 10.9351C5.87916 11.0484 6.01799 11.1051 6.19366 11.1051C6.36932 11.1051 6.50532 11.0541 6.60166 10.9521C6.69799 10.8501 6.74616 10.7141 6.74616 10.5441V6.1411H11.1492C11.2965 6.1411 11.4268 6.0901 11.5402 5.9881C11.6535 5.8861 11.7102 5.7501 11.7102 5.5801C11.7102 5.4101 11.6563 5.28544 11.5487 5.2061C11.441 5.12677 11.3078 5.0871 11.1492 5.0871Z" fill="#030712"/>
</svg>
