<svg width="13" height="12" viewBox="0 0 13 12" fill="none" xmlns="http://www.w3.org/2000/svg">
<path d="M7.04346 0.965016C6.9848 0.847683 6.90046 0.754183 6.79046 0.684516C6.68046 0.614849 6.55946 0.580016 6.42746 0.580016C6.29546 0.580016 6.17263 0.614849 6.05896 0.684516C5.94529 0.754183 5.85913 0.847683 5.80046 0.965016L4.42546 3.81402L1.33446 4.26502C1.2098 4.27968 1.09613 4.32918 0.993462 4.41352C0.890795 4.49785 0.821128 4.60235 0.784462 4.72702C0.747795 4.85168 0.744128 4.97818 0.773462 5.10652C0.802795 5.23485 0.865128 5.34302 0.960462 5.43102L3.19346 7.65302L2.66546 10.777C2.64346 10.909 2.65813 11.0337 2.70946 11.151C2.7608 11.2683 2.8378 11.3673 2.94046 11.448C3.04313 11.5287 3.16046 11.5727 3.29246 11.58C3.42446 11.5873 3.54913 11.5617 3.66646 11.503L6.42746 10.029L9.18846 11.503C9.30579 11.5617 9.42863 11.5873 9.55696 11.58C9.6853 11.5727 9.80446 11.5305 9.91446 11.4535C10.0245 11.3765 10.1033 11.2775 10.151 11.1565C10.1986 11.0355 10.2115 10.909 10.1895 10.777L9.65046 7.65302L11.8945 5.43102C11.9898 5.34302 12.0521 5.23485 12.0815 5.10652C12.1108 4.97818 12.1035 4.85168 12.0595 4.72702C12.0155 4.60235 11.9458 4.49785 11.8505 4.41352C11.7551 4.32918 11.6415 4.27968 11.5095 4.26502L8.42946 3.81402L7.04346 0.965016Z" fill="#FACC15"/>
</svg>
